# xmcd
#
# Track frame offsets: 
#        150
#        14430
#        29040
#        44325
#        63890
#        78335
#        94515
#        105402
#        116955
#        132342
#
# Disc length: 1918 seconds
#
# Revision: 5
# Processed by: cddbd v1.4PL0 Copyright (c) Steve Scherf et al.
# Submitted via: ExactAudioCopy v0.90b2
#
DISCID=7f077c0a
DTITLE=Eddie Rabbitt - All Time Greatest Hits
DYEAR=1900
DGENRE=Country
TTITLE0=I Love A Rainy Night
TTITLE1=Drivin' My Life Away
TTITLE2=Gone Too Far
TTITLE3=Suspicions
TTITLE4=I Can't Help Myself (Here Comes That Feelin')
TTITLE5=Rocky Mountain Music
TTITLE6=Two Dollars In The Jukebox
TTITLE7=Do You Right Tonight
TTITLE8=Pour Me Another Tequila
TTITLE9=Hearts On Fire
EXTD=
EXTT0=
EXTT1=
EXTT2=
EXTT3=
EXTT4=
EXTT5=
EXTT6=
EXTT7=
EXTT8=
EXTT9=
PLAYORDER=
